<svg xmlns="http://www.w3.org/2000/svg" width="16" height="17" fill="none"><mask id="a" width="16" height="17" x="0" y="0" maskUnits="userSpaceOnUse" style="mask-type:luminance"><path fill="#fff" fill-rule="evenodd" d="M16 .103H0v16h16v-16Z" clip-rule="evenodd"/></mask><g mask="url(#a)"><path fill="#fff" fill-rule="evenodd" d="M14.39 11.337a3.157 3.157 0 0 1-3.157 3.157H4.766a3.157 3.157 0 0 1-3.157-3.157V4.87a3.157 3.157 0 0 1 3.157-3.157h6.467A3.157 3.157 0 0 1 14.39 4.87v6.467ZM11.233.103H4.766A4.772 4.772 0 0 0 0 4.87v6.467a4.772 4.772 0 0 0 4.766 4.766h6.467A4.772 4.772 0 0 0 16 11.337V4.87A4.772 4.772 0 0 0 11.233.103Z" clip-rule="evenodd"/></g><path fill="#fff" fill-rule="evenodd" d="M8.049 10.658a2.604 2.604 0 1 1 0-5.207 2.604 2.604 0 0 1 0 5.207Zm0-6.865a4.266 4.266 0 0 0-4.261 4.262 4.266 4.266 0 0 0 4.261 4.26 4.266 4.266 0 0 0 4.261-4.26 4.266 4.266 0 0 0-4.26-4.262ZM12.31 2.846a.947.947 0 1 0 0 1.894.947.947 0 0 0 0-1.894Z" clip-rule="evenodd"/></svg>