<svg xmlns="http://www.w3.org/2000/svg" width="38" height="40" fill="none"><path fill="#B7BBB2" fill-rule="evenodd" d="M4.5 9a4.5 4.5 0 1 0 0-9 4.5 4.5 0 0 0 0 9ZM18.5 9a4.5 4.5 0 1 0 0-9 4.5 4.5 0 0 0 0 9ZM33.5 9a4.5 4.5 0 1 0 0-9 4.5 4.5 0 0 0 0 9ZM4.5 24a4.5 4.5 0 1 0 0-9 4.5 4.5 0 0 0 0 9ZM18.5 24a4.5 4.5 0 1 0 0-9 4.5 4.5 0 0 0 0 9ZM33.5 24a4.5 4.5 0 1 0 0-9 4.5 4.5 0 0 0 0 9ZM4.5 40a4.5 4.5 0 1 0 0-9 4.5 4.5 0 0 0 0 9ZM18.5 40a4.5 4.5 0 1 0 0-9 4.5 4.5 0 0 0 0 9ZM33.5 40a4.5 4.5 0 1 0 0-9 4.5 4.5 0 0 0 0 9Z" clip-rule="evenodd"/></svg>