<svg width="1340" height="40" viewBox="0 0 1340 40" fill="none" xmlns="http://www.w3.org/2000/svg">
<path fill-rule="evenodd" clip-rule="evenodd" d="M4.5 9C6.98528 9 9 6.98528 9 4.5C9 2.01472 6.98528 0 4.5 0C2.01472 0 0 2.01472 0 4.5C0 6.98528 2.01472 9 4.5 9Z" fill="#B7BBB2"/>
<path fill-rule="evenodd" clip-rule="evenodd" d="M18.5 9C20.9853 9 23 6.98528 23 4.5C23 2.01472 20.9853 0 18.5 0C16.0147 0 14 2.01472 14 4.5C14 6.98528 16.0147 9 18.5 9Z" fill="#B7BBB2"/>
<path fill-rule="evenodd" clip-rule="evenodd" d="M33.5 9C35.9853 9 38 6.98528 38 4.5C38 2.01472 35.9853 0 33.5 0C31.0147 0 29 2.01472 29 4.5C29 6.98528 31.0147 9 33.5 9Z" fill="#B7BBB2"/>
<path fill-rule="evenodd" clip-rule="evenodd" d="M4.5 24C6.98528 24 9 21.9853 9 19.5C9 17.0147 6.98528 15 4.5 15C2.01472 15 0 17.0147 0 19.5C0 21.9853 2.01472 24 4.5 24Z" fill="#B7BBB2"/>
<path fill-rule="evenodd" clip-rule="evenodd" d="M18.5 24C20.9853 24 23 21.9853 23 19.5C23 17.0147 20.9853 15 18.5 15C16.0147 15 14 17.0147 14 19.5C14 21.9853 16.0147 24 18.5 24Z" fill="#B7BBB2"/>
<path fill-rule="evenodd" clip-rule="evenodd" d="M33.5 24C35.9853 24 38 21.9853 38 19.5C38 17.0147 35.9853 15 33.5 15C31.0147 15 29 17.0147 29 19.5C29 21.9853 31.0147 24 33.5 24Z" fill="#B7BBB2"/>
<path fill-rule="evenodd" clip-rule="evenodd" d="M4.5 40C6.98528 40 9 37.9853 9 35.5C9 33.0147 6.98528 31 4.5 31C2.01472 31 0 33.0147 0 35.5C0 37.9853 2.01472 40 4.5 40Z" fill="#B7BBB2"/>
<path fill-rule="evenodd" clip-rule="evenodd" d="M18.5 40C20.9853 40 23 37.9853 23 35.5C23 33.0147 20.9853 31 18.5 31C16.0147 31 14 33.0147 14 35.5C14 37.9853 16.0147 40 18.5 40Z" fill="#B7BBB2"/>
<path fill-rule="evenodd" clip-rule="evenodd" d="M33.5 40C35.9853 40 38 37.9853 38 35.5C38 33.0147 35.9853 31 33.5 31C31.0147 31 29 33.0147 29 35.5C29 37.9853 31.0147 40 33.5 40Z" fill="#B7BBB2"/>
<path fill-rule="evenodd" clip-rule="evenodd" d="M1315.37 0.583037C1314.22 -0.194346 1312.7 -0.194346 1311.54 0.583037L1287.51 16.6916C1286.57 17.3183 1287.02 18.7756 1288.14 18.7756H1295.83C1295.85 18.7756 1295.88 37.6503 1295.88 37.6503C1295.88 38.396 1296.48 39 1297.23 39H1303.45C1304.23 39 1304.85 38.3756 1304.85 37.6062V27.9376C1304.85 23.3447 1308.29 19.2855 1312.88 18.9841C1315.48 18.813 1317.85 19.8023 1319.53 21.4919C1321.1 23.0444 1322.06 25.1975 1322.06 27.5546V37.7172C1322.06 38.4255 1322.64 39 1323.34 39H1329.69C1330.44 39 1331.05 38.3949 1331.05 37.6492V18.8266C1331.05 18.7994 1338.9 18.7756 1338.9 18.7756C1339.98 18.7756 1340.41 17.3659 1339.51 16.7596L1315.37 0.583037Z" fill="#B7BBB2"/>
<path fill-rule="evenodd" clip-rule="evenodd" d="M1315 26.5005C1315 27.3288 1314.33 28 1313.5 28C1312.67 28 1312 27.3288 1312 26.5005C1312 25.6722 1312.67 25 1313.5 25C1314.33 25 1315 25.6722 1315 26.5005Z" fill="#B7BBB2"/>
<path fill-rule="evenodd" clip-rule="evenodd" d="M1313.52 34.9911C1313.41 34.9911 1313.33 34.8925 1313.33 34.7714V26.2096C1313.33 26.0896 1313.41 25.9911 1313.52 25.9911C1313.62 25.9911 1313.7 26.0896 1313.7 26.2096V34.7714C1313.7 34.8925 1313.62 34.9911 1313.52 34.9911Z" fill="#B7BBB2"/>
<path fill-rule="evenodd" clip-rule="evenodd" d="M1316.2 39H1310.8C1310.39 39 1310.04 38.71 1309.97 38.312L1309.01 32.9758C1308.92 32.4665 1309.32 32 1309.85 32H1317.15C1317.68 32 1318.08 32.4665 1317.99 32.9758L1317.03 38.312C1316.96 38.71 1316.61 39 1316.2 39Z" fill="#B7BBB2"/>
<path fill-rule="evenodd" clip-rule="evenodd" d="M1311.62 23.693C1311.93 24.4007 1312.04 25.1269 1311.99 25.7346C1311.96 25.9825 1311.78 26.0749 1311.58 25.9336C1311.12 25.5846 1310.68 25.0139 1310.37 24.3051C1310.07 23.5974 1309.96 22.8723 1310.01 22.2646C1310.04 22.0156 1310.23 21.9243 1310.42 22.0689C1310.89 22.4211 1311.32 22.9853 1311.62 23.693Z" fill="#B7BBB2"/>
<path fill-rule="evenodd" clip-rule="evenodd" d="M1316.52 24.3883C1316.2 25.092 1315.77 25.6351 1315.33 25.9471C1315.16 26.0758 1315 25.9608 1315 25.6989C1315 25.0612 1315.16 24.3143 1315.48 23.6094C1315.8 22.9057 1316.23 22.3637 1316.67 22.0517C1316.85 21.9242 1317 22.0415 1317 22.3045C1317 22.9456 1316.84 23.6846 1316.52 24.3883Z" fill="#B7BBB2"/>
<path fill-rule="evenodd" clip-rule="evenodd" d="M1314 22.0149C1313.99 22.7296 1313.85 23.3785 1313.63 23.8557C1313.54 24.0514 1313.39 24.0474 1313.31 23.8477C1313.11 23.3596 1312.99 22.6987 1313 21.9829C1313.01 21.2682 1313.15 20.6203 1313.37 20.1431C1313.46 19.9474 1313.61 19.9534 1313.69 20.1551C1313.89 20.6472 1314.01 21.3001 1314 22.0149Z" fill="#B7BBB2"/>
</svg>
