<svg xmlns="http://www.w3.org/2000/svg" width="16" height="16" fill="none"><path fill="#fff" fill-rule="evenodd" d="M5.01 14c5.174 0 9.37-3.873 9.37-8.65 0-.12-.003-.238-.009-.356.188-.136 1.346-.993 1.629-1.543 0 0-.94.36-1.86.445.084-.054 1.269-.799 1.43-1.687 0 0-.665.328-1.597.614-.153.048-.315.095-.48.138a3.41 3.41 0 0 0-2.4-.961C9.275 2 7.803 3.358 7.803 5.034c0 .236.03.467.085.688-.253-.01-4.118-.21-6.747-3.15 0 0-1.572 1.98.936 4.017 0 0-.762-.028-1.42-.39 0 0-.242 2.399 2.599 3.012 0 0-.56.196-1.45.056 0 0 .497 1.939 3.02 2.12 0 0-1.995 1.664-4.827 1.274A9.904 9.904 0 0 0 5.01 14Z" clip-rule="evenodd"/></svg>